<?xml version="1.0" standalone="no"?><!DOCTYPE svg PUBLIC "-//W3C//DTD SVG 1.1//EN" "http://www.w3.org/Graphics/SVG/1.1/DTD/svg11.dtd"><svg t="1767608181550" class="icon" viewBox="0 0 1024 1024" version="1.1" xmlns="http://www.w3.org/2000/svg" p-id="36984" width="128" height="128" xmlns:xlink="http://www.w3.org/1999/xlink"><path d="M876.586667 846.314667l-16.426667 28.458666c-35.2 60.970667-113.877333 82.048-174.848 46.848l-258.645333-149.333333 80.426666-139.306667 369.493334 213.333334z" fill="#3498DB" p-id="36985"></path><path d="M957.397333 785.472c-21.333333 67.093333-93.674667 104.533333-160.768 83.2L512 778.197333l38.784-121.984 406.613333 129.258667z" fill="#E74C3C" p-id="36986"></path><path d="M416 757.333333m-96 0a96 96 0 1 0 192 0 96 96 0 1 0-192 0Z" fill="#E74C3C" p-id="36987"></path><path d="M341.333333 319.808c-0.768 6.698667 0 8.341333 0 21.333333 0 49.941333 25.962667 100.373333 58.410667 133.077334 1.024 1.024 2.069333 2.048 3.093333 2.837333l14.165334 12.352 112.256 98.88L682.666667 725.141333c-73.962667 63.744-176.234667 93.994667-283.328 83.456-178.496-17.557333-321.514667-164.949333-334.336-343.850666-14.976-208.768 141.44-384.298667 342.976-399.381334a342.826667 342.826667 0 0 1 29.354666-1.536 342.826667 342.826667 0 0 1 29.354667 1.536c139.072 15.317333 195.114667 135.018667 189.674667 279.317334h-0.042667c-0.96-89.941333-57.578667-98.069333-144.32-110.208-8.234667-1.536-161.408 2.176-170.666667 85.333333z" fill="#E74C3C" p-id="36988"></path><path d="M554.666667 170.474667v75.626666l-132.565334 187.072c-43.2-19.925333-80.469333-63.466667-80.768-110.72-0.533333-81.941333 78.357333-141.653333 165.034667-150.741333a202.730667 202.730667 0 0 1 21.461333-1.258667L554.666667 170.474667z" fill="#ECF0F1" p-id="36989"></path><path d="M554.666667 246.122667v186.325333a152.533333 152.533333 0 0 1-67.093334 15.381333 152.149333 152.149333 0 0 1-65.472-14.613333L554.666667 246.122667z" fill="#F39C12" p-id="36990"></path><path d="M704 327.701333a223.253333 223.253333 0 0 1-7.978667 51.797334c0 0.469333-0.256 0.917333-0.490666 1.386666-20.202667 57.813333-74.538667 101.034667-140.864 109.589334v-320c83.776 10.88 148.096 76.778667 149.333333 157.226666z" fill="#F1C40F" p-id="36991"></path><path d="M480 245.141333m-32 0a32 32 0 1 0 64 0 32 32 0 1 0-64 0Z" fill="#00351D" p-id="36992"></path><path d="M695.893333 702.336l-60.266666-19.157333-106.368-94.890667-112.256-98.88-14.165334-12.352c-1.024-0.768-2.048-1.792-3.093333-2.837333a211.434667 211.434667 0 0 1-50.858667-85.674667A233.536 233.536 0 0 0 298.666667 533.333333c0 129.6 105.066667 234.666667 234.666666 234.666667 63.168 0 120.384-25.088 162.56-65.664zM656.469333 333.845333l-0.746666-0.448c0.256 3.669333 0.533333 7.296 0.576 11.285334h0.042666c0.149333-3.669333 0.064-7.232 0.128-10.837334z" fill="#2ECC71" p-id="36993"></path><path d="M633.813333 681.6C603.306667 695.893333 569.386667 704 533.333333 704a234.453333 234.453333 0 0 1-232.533333-203.093333c5.973333-42.026667 23.04-80.64 48-112.426667 10.026667 33.066667 28.8 63.573333 50.986667 85.76 1.066667 1.066667 1.92 2.133333 2.986666 2.773333l14.293334 12.373334 112.213333 98.986666 104.533333 93.226667z" fill="#F1C40F" p-id="36994"></path><path d="M581.76 635.093333c-15.573333 3.2-31.786667 4.906667-48.426667 4.906667-107.52 0-197.973333-72.106667-225.706666-170.666667-2.773333-38.464 10.282667-66.709333 41.173333-80.853333 10.026667 33.066667 28.8 63.573333 50.986667 85.76 1.066667 1.066667 1.92 2.133333 2.986666 2.773333l14.293334 12.373334 112.213333 98.986666 52.48 46.72z" fill="#E74C3C" p-id="36995"></path></svg>